<?xml version="1.0" encoding="UTF-8"?>
<svg width="700pt" height="700pt" version="1.1" viewBox="0 0 700 700" xmlns="http://www.w3.org/2000/svg" xmlns:xlink="http://www.w3.org/1999/xlink">
 <defs>
  <symbol id="m" overflow="visible">
   <path d="m29.312-1.75c-1.5117 0.78125-3.0898 1.3711-4.7344 1.7656-1.6367 0.40625-3.3398 0.60938-5.1094 0.60938-5.3125 0-9.5273-1.4844-12.641-4.4531-3.1055-2.9688-4.6562-7-4.6562-12.094s1.5508-9.125 4.6562-12.094c3.1133-2.9688 7.3281-4.4531 12.641-4.4531 1.7695 0 3.4727 0.19922 5.1094 0.59375 1.6445 0.39844 3.2227 0.99219 4.7344 1.7812v6.5938c-1.5312-1.0391-3.0391-1.8008-4.5156-2.2812-1.4805-0.48828-3.0391-0.73438-4.6719-0.73438-2.9375 0-5.2461 0.94531-6.9219 2.8281-1.6797 1.875-2.5156 4.4648-2.5156 7.7656 0 3.293 0.83594 5.8828 2.5156 7.7656 1.6758 1.875 3.9844 2.8125 6.9219 2.8125 1.6328 0 3.1914-0.23828 4.6719-0.71875 1.4766-0.48828 2.9844-1.2539 4.5156-2.2969z"/>
  </symbol>
  <symbol id="h" overflow="visible">
   <path d="m21.453-17.406c-0.67969-0.3125-1.3516-0.53906-2.0156-0.6875-0.65625-0.15625-1.3203-0.23438-1.9844-0.23438-1.9688 0-3.4844 0.63281-4.5469 1.8906-1.0547 1.2617-1.5781 3.0703-1.5781 5.4219v11.016h-7.6562v-23.922h7.6562v3.9219c0.97656-1.5625 2.1016-2.7031 3.375-3.4219 1.2812-0.71875 2.8125-1.0781 4.5938-1.0781 0.25 0 0.52344 0.011719 0.82812 0.03125 0.30078 0.023438 0.73438 0.070312 1.2969 0.14062z"/>
  </symbol>
  <symbol id="c" overflow="visible">
   <path d="m27.562-12.031v2.1875h-17.891c0.1875 1.793 0.83203 3.1367 1.9375 4.0312 1.1133 0.89844 2.6719 1.3438 4.6719 1.3438 1.6016 0 3.25-0.23438 4.9375-0.70312 1.6875-0.47656 3.4219-1.2031 5.2031-2.1719v5.8906c-1.8047 0.6875-3.6094 1.2031-5.4219 1.5469-1.8125 0.35156-3.6211 0.53125-5.4219 0.53125-4.3359 0-7.7031-1.0977-10.109-3.2969-2.3984-2.207-3.5938-5.2969-3.5938-9.2656 0-3.9062 1.1758-6.9727 3.5312-9.2031 2.3633-2.2383 5.6094-3.3594 9.7344-3.3594 3.7578 0 6.7695 1.1367 9.0312 3.4062 2.2578 2.2617 3.3906 5.2812 3.3906 9.0625zm-7.8594-2.5312c0-1.457-0.42969-2.6289-1.2812-3.5156-0.84375-0.89453-1.9492-1.3438-3.3125-1.3438-1.4922 0-2.6992 0.41797-3.625 1.25-0.91797 0.83594-1.4922 2.0391-1.7188 3.6094z"/>
  </symbol>
  <symbol id="b" overflow="visible">
   <path d="m14.391-10.766c-1.5938 0-2.793 0.27344-3.5938 0.8125-0.80469 0.54297-1.2031 1.3398-1.2031 2.3906 0 0.96875 0.32031 1.7305 0.96875 2.2812 0.64453 0.54297 1.5469 0.8125 2.7031 0.8125 1.4375 0 2.6445-0.51562 3.625-1.5469 0.98828-1.0312 1.4844-2.3203 1.4844-3.875v-0.875zm11.688-2.8906v13.656h-7.7031v-3.5469c-1.0312 1.4492-2.1875 2.5078-3.4688 3.1719s-2.8398 1-4.6719 1c-2.4805 0-4.4961-0.72266-6.0469-2.1719-1.543-1.4453-2.3125-3.3203-2.3125-5.625 0-2.8125 0.96094-4.8672 2.8906-6.1719 1.9375-1.3125 4.9688-1.9688 9.0938-1.9688h4.5156v-0.60938c0-1.207-0.48047-2.0938-1.4375-2.6562-0.94922-0.5625-2.4375-0.84375-4.4688-0.84375-1.6367 0-3.1562 0.16797-4.5625 0.5-1.4062 0.32422-2.7188 0.8125-3.9375 1.4688v-5.8281c1.6445-0.40625 3.2891-0.70703 4.9375-0.90625 1.6562-0.20703 3.3047-0.3125 4.9531-0.3125 4.3203 0 7.4375 0.85547 9.3438 2.5625 1.9141 1.6992 2.875 4.4609 2.875 8.2812z"/>
  </symbol>
  <symbol id="g" overflow="visible">
   <path d="m12.031-30.719v6.7969h7.875v5.4688h-7.875v10.141c0 1.1172 0.21875 1.8711 0.65625 2.2656 0.4375 0.38672 1.3125 0.57812 2.625 0.57812h3.9375v5.4688h-6.5625c-3.0234 0-5.1641-0.62891-6.4219-1.8906-1.2617-1.2578-1.8906-3.3984-1.8906-6.4219v-10.141h-3.7969v-5.4688h3.7969v-6.7969z"/>
  </symbol>
  <symbol id="f" overflow="visible">
   <path d="m19.953-20.422v-12.812h7.6875v33.234h-7.6875v-3.4531c-1.0547 1.4062-2.2148 2.4375-3.4844 3.0938-1.2734 0.65625-2.7422 0.98438-4.4062 0.98438-2.9492 0-5.3711-1.1719-7.2656-3.5156-1.8867-2.3438-2.8281-5.3594-2.8281-9.0469s0.94141-6.7031 2.8281-9.0469c1.8945-2.3438 4.3164-3.5156 7.2656-3.5156 1.6562 0 3.1172 0.33594 4.3906 1 1.2812 0.65625 2.4453 1.6836 3.5 3.0781zm-5.0469 15.484c1.6445 0 2.8945-0.59766 3.75-1.7969 0.86328-1.1953 1.2969-2.9297 1.2969-5.2031 0-2.2812-0.43359-4.0195-1.2969-5.2188-0.85547-1.1953-2.1055-1.7969-3.75-1.7969-1.625 0-2.8711 0.60156-3.7344 1.7969-0.85547 1.1992-1.2812 2.9375-1.2812 5.2188 0 2.2734 0.42578 4.0078 1.2812 5.2031 0.86328 1.1992 2.1094 1.7969 3.7344 1.7969z"/>
  </symbol>
  <symbol id="e" overflow="visible">
   <path d="m16.406-4.9375c1.6328 0 2.8828-0.59766 3.75-1.7969 0.86328-1.1953 1.2969-2.9297 1.2969-5.2031 0-2.2812-0.43359-4.0195-1.2969-5.2188-0.86719-1.1953-2.1172-1.7969-3.75-1.7969-1.6367 0-2.8906 0.60547-3.7656 1.8125-0.875 1.1992-1.3125 2.9336-1.3125 5.2031 0 2.2617 0.4375 3.9961 1.3125 5.2031 0.875 1.1992 2.1289 1.7969 3.7656 1.7969zm-5.0781-15.484c1.0508-1.3945 2.2188-2.4219 3.5-3.0781 1.2812-0.66406 2.7539-1 4.4219-1 2.9453 0 5.3672 1.1719 7.2656 3.5156 1.8945 2.3438 2.8438 5.3594 2.8438 9.0469s-0.94922 6.7031-2.8438 9.0469c-1.8984 2.3438-4.3203 3.5156-7.2656 3.5156-1.668 0-3.1406-0.33594-4.4219-1s-2.4492-1.6914-3.5-3.0781v3.4531h-7.6562v-33.234h7.6562z"/>
  </symbol>
  <symbol id="a" overflow="visible">
   <path d="m0.53125-23.922h7.6562l6.4219 16.234 5.4688-16.234h7.6562l-10.062 26.188c-1.0117 2.6641-2.1953 4.5234-3.5469 5.5781-1.3438 1.0625-3.1211 1.5938-5.3281 1.5938h-4.4219v-5.0156h2.3906c1.3008 0 2.2422-0.21094 2.8281-0.625 0.59375-0.40625 1.0547-1.1484 1.3906-2.2188l0.20312-0.65625z"/>
  </symbol>
  <symbol id="d" overflow="visible">
   <path d="m4.0156-31.891h22.203v6.2188h-13.984v5.9375h13.141v6.2188h-13.141v7.2969h14.453v6.2188h-22.672z"/>
  </symbol>
  <symbol id="l" overflow="visible">
   <path d="m3.4219-9.3125v-14.609h7.6875v2.3906c0 1.293-0.011719 2.918-0.03125 4.875-0.011719 1.9609-0.015625 3.2656-0.015625 3.9219 0 1.9297 0.046875 3.3125 0.14062 4.1562 0.10156 0.84375 0.28125 1.4609 0.53125 1.8438 0.3125 0.5 0.71875 0.88672 1.2188 1.1562 0.50781 0.27344 1.0938 0.40625 1.75 0.40625 1.5938 0 2.8438-0.60938 3.75-1.8281 0.91406-1.2266 1.375-2.9297 1.375-5.1094v-11.812h7.6406v23.922h-7.6406v-3.4531c-1.1562 1.3867-2.3828 2.4141-3.6719 3.0781-1.2812 0.66406-2.6992 1-4.25 1-2.7734 0-4.8828-0.84766-6.3281-2.5469-1.4375-1.6953-2.1562-4.1602-2.1562-7.3906z"/>
  </symbol>
  <symbol id="k" overflow="visible">
   <path d="m23-23.172v6.2344c-1.0312-0.71875-2.0742-1.2422-3.125-1.5781-1.043-0.34375-2.125-0.51562-3.25-0.51562-2.1367 0-3.8047 0.625-5 1.875-1.1875 1.2422-1.7812 2.9805-1.7812 5.2188 0 2.2305 0.59375 3.9688 1.7812 5.2188 1.1953 1.25 2.8633 1.875 5 1.875 1.1953 0 2.332-0.17578 3.4062-0.53125 1.0703-0.36328 2.0625-0.89453 2.9688-1.5938v6.2656c-1.1875 0.4375-2.4023 0.76562-3.6406 0.98438-1.2305 0.22656-2.4648 0.34375-3.7031 0.34375-4.3125 0-7.6875-1.1094-10.125-3.3281s-3.6562-5.2969-3.6562-9.2344c0-3.9453 1.2188-7.0234 3.6562-9.2344 2.4375-2.2188 5.8125-3.3281 10.125-3.3281 1.25 0 2.4844 0.10938 3.7031 0.32812s2.4297 0.55469 3.6406 1z"/>
  </symbol>
  <symbol id="j" overflow="visible">
   <path d="m3.6719-33.234h7.6562v33.234h-7.6562z"/>
  </symbol>
  <symbol id="i" overflow="visible">
   <path d="m11.328-3.4531v12.547h-7.6562v-33.016h7.6562v3.5c1.0508-1.3945 2.2188-2.4219 3.5-3.0781 1.2812-0.66406 2.7539-1 4.4219-1 2.9453 0 5.3672 1.1719 7.2656 3.5156 1.8945 2.3438 2.8438 5.3594 2.8438 9.0469s-0.94922 6.7031-2.8438 9.0469c-1.8984 2.3438-4.3203 3.5156-7.2656 3.5156-1.668 0-3.1406-0.33594-4.4219-1s-2.4492-1.6914-3.5-3.0781zm5.0781-15.5c-1.6367 0-2.8906 0.60547-3.7656 1.8125-0.875 1.1992-1.3125 2.9336-1.3125 5.2031 0 2.2617 0.4375 3.9961 1.3125 5.2031 0.875 1.1992 2.1289 1.7969 3.7656 1.7969 1.6328 0 2.8828-0.59766 3.75-1.7969 0.86328-1.1953 1.2969-2.9297 1.2969-5.2031 0-2.2812-0.43359-4.0195-1.2969-5.2188-0.86719-1.1953-2.1172-1.7969-3.75-1.7969z"/>
  </symbol>
 </defs>
 <g>
  <path d="m78.75 533.75h17.5v17.5h-17.5z"/>
  <path d="m603.75 533.75h17.5v17.5h-17.5z"/>
  <path d="m420 181.04c0-3.3242-2.7109-6.0391-6.0391-6.0391h-16.801c-3.6758 0-6.8789 2.2227-8.1641 5.6719l-12.172 32.664 15.785 42.422 26.969-72.52c0.28125-0.75 0.42188-1.4727 0.42188-2.1992z"/>
  <path d="m267.84 227.5h-16.801c-3.3242 0-6.0352 2.7109-6.0352 6.0391 0 0.72656 0.14062 1.4609 0.42188 2.2305l52.184 140.3 15.777-42.375-37.391-100.53c-1.2773-3.4492-4.4805-5.6719-8.1562-5.6719z"/>
  <path d="m582.89 502.36c13.449-15.699 20.859-35.727 20.859-56.402 0-15.594-4.1289-30.047-11.934-42.543l-14.254-22.812c-11.488-18.375-17.562-39.551-17.562-61.23 0-15.836 2.8438-30.652 8.4531-44.688l2.9297-7.332-19.844 5.9492c-26.336 7.9023-44.039 31.691-44.039 59.203h-17.5c0-35.297 22.715-65.828 56.516-75.969l6.9922-2.1016c14.664-43.766-0.78906-66.945-9.9297-76.055-4.2188 4.4961-10.684 10.562-18.805 16.32-1.1289 19.102-9.0117 36.918-22.664 50.559l-5.9219 5.9219-12.371-12.371 5.9219-5.9219c11.453-11.453 17.762-26.68 17.762-42.883 0-18.051-7.9531-35.035-21.824-46.594l-18.664-15.559c-6.8086-5.6719-12.277-12.582-16.25-20.52-8.4102-16.828-8.918-36.723-1.5156-53.926-54.234 6.9297-96.879 52.176-99.051 107.27 5.5039 2.9648 9.9492 7.8125 12.207 13.895l5.0977 13.703 5.1016-13.695c3.7969-10.211 13.668-17.07 24.562-17.07h16.801c12.977 0 23.539 10.562 23.539 23.539 0 2.7812-0.50781 5.5664-1.4961 8.2695l-34.047 91.551 94.121 252.89h-18.672l-131.41-353.07c-1.2852-3.457-4.4883-5.6797-8.1641-5.6797h-16.801c-3.3242 0-6.0352 2.7109-6.0352 6.0391 0 0.72656 0.14062 1.4609 0.42188 2.2305l130.43 350.48h-18.672l-59.676-160.35-10.352 27.809 49.41 132.54h-18.672l-40.066-107.48-15.785 42.402 24.223 65.074h-18.664l-14.883-39.996-14.895 39.996h-18.672l69.02-185.44-15.777-42.387-84.785 227.82h-18.68l49.352-132.59-59.266-159.33c-1-2.7305-1.5078-5.5117-1.5078-8.293 0-12.977 10.562-23.539 23.539-23.539h16.801c10.895 0 20.773 6.8594 24.57 17.07l30.328 81.531 10.332-27.766-34.055-91.508c-1.0078-2.7266-1.5156-5.5078-1.5156-8.2891 0-12.977 10.562-23.539 23.539-23.539h11.855c1.7852-30.266 14.098-57.793 33.398-79.074-12.32-25.578-41.73-41.012-58.695-47.984 0.55859 15.75-1.8906 40.969-18.742 60.129 10.605 14.113 19.328 29.672 25.586 46.359l-16.391 6.1406c-15.617-41.656-47.645-76.027-88.051-94.594v16.859c0 16.809-8.3555 32.418-22.34 41.738-18.883 12.59-30.16 33.66-30.16 56.367 0 11.77 3.0898 23.391 8.9258 33.602l15.109 26.441c7.168 12.555 10.965 26.836 10.965 41.301 0 5.6445-0.60547 10.895-1.5391 16.02 4.2188 4.9102 7.8047 10.344 10.703 16.16 4.3008-10.699 8.3359-22.547 8.3359-43.215 0-20.43-6.1875-29.652-12.738-39.418-6.3359-9.4414-13.512-20.145-13.512-39.332 0-39.227 28.918-58.957 30.145-59.781l13.605-9.0742v16.355c0 17.727 9.5977 23.66 26.574 32.609 13.824 7.2969 29.488 15.566 34.414 35.262l-16.977 4.2422c-3.0273-12.117-13.492-17.641-25.602-24.035-12.215-6.4492-26.715-14.098-32.883-30.328-5.7852 7.5273-11.777 19.098-11.777 34.75 0 13.859 4.6562 20.797 10.543 29.582 7.3594 10.973 15.707 23.406 15.707 49.168 0 26.383-6.1328 41.328-11.059 53.332-3.5977 8.7656-6.4414 15.688-6.4414 25.418h-17.5c0-27.512-17.703-51.301-44.055-59.203l-19.836-5.9492 2.9297 7.332c5.6172 14.027 8.4609 28.848 8.4609 44.047 0 22.32-6.0742 43.504-17.562 61.879l-14.262 22.812c-7.7969 12.488-11.926 26.941-11.926 41.789 0 21.422 7.4102 41.449 20.859 57.137l26.914 31.406h-30.273v17.5h472.5v-17.5h-30.273zm-171.64-371.11h-17.5v-17.5h17.5zm35 148.75h-17.5v-17.5h17.5zm-253.75 218.75v-17.5h17.5v17.5zm35-131.25h17.5v17.5h-17.5zm-70-17.5h17.5v17.5h-17.5zm20.062 37.562 8.5664-8.5664 5.4414 10.84c0.16797 0.33203 16.836 33.18 40.785 49.141l-9.7031 14.559c-18.094-12.066-32.078-31.387-39.863-43.863-6.9766 11.273-16.539 32.309-16.539 62.828h-17.5c0-55.484 27.633-83.766 28.812-84.938zm356.19-37.562h17.5v17.5h-17.5zm-70-175h17.5v17.5h-17.5zm8.75 183.75h-17.5v-17.5h17.5zm11.516 69.555-5.5391-16.598c19.73-6.5703 20.258-25.945 20.266-26.766l0.19141-12.715 11.805 4.6445c0.5 0.20312 50.023 20.832 40.406 88.113l-17.316-2.4766c5.1719-36.18-9.6602-54.941-20.176-63.453-3.8242 11.016-12.488 23.527-29.637 29.25zm58.484 61.695v17.5h-17.5v-17.5z"/>
  <use x="70" y="691.25" xlink:href="#m"/>
  <use x="102.109375" y="691.25" xlink:href="#h"/>
  <use x="123.683594" y="691.25" xlink:href="#c"/>
  <use x="153.355469" y="691.25" xlink:href="#b"/>
  <use x="182.878906" y="691.25" xlink:href="#g"/>
  <use x="203.792969" y="691.25" xlink:href="#c"/>
  <use x="233.464844" y="691.25" xlink:href="#f"/>
  <use x="280.011719" y="691.25" xlink:href="#e"/>
  <use x="311.328125" y="691.25" xlink:href="#a"/>
  <use x="355.078125" y="691.25" xlink:href="#d"/>
  <use x="384.964844" y="691.25" xlink:href="#l"/>
  <use x="416.113281" y="691.25" xlink:href="#k"/>
  <use x="442.046875" y="691.25" xlink:href="#b"/>
  <use x="471.570312" y="691.25" xlink:href="#j"/>
  <use x="486.566406" y="691.25" xlink:href="#a"/>
  <use x="515.082031" y="691.25" xlink:href="#i"/>
 </g>
</svg>
